HIERARCHY
ROOT Hips
{
	OFFSET 0.000000 0.000000 0.000000
	CHANNELS 6 Xposition Yposition Zposition Zrotation Xrotation Yrotation
	JOINT Spine
	{
		OFFSET 0.000000 -0.000357 2193.886963
		CHANNELS 6 Xposition Yposition Zposition Zrotation Xrotation Yrotation
		JOINT Spine1
		{
			OFFSET 0.000000 -0.000809 4964.319336
			CHANNELS 6 Xposition Yposition Zposition Zrotation Xrotation Yrotation
			JOINT Neck
			{
				OFFSET 0.000000 -0.000896 5499.413574
				CHANNELS 6 Xposition Yposition Zposition Zrotation Xrotation Yrotation
				JOINT Head
				{
					OFFSET 0.000000 -535.095032 4146.981934
					CHANNELS 6 Xposition Yposition Zposition Zrotation Xrotation Yrotation
					End Site
					{
						OFFSET 0.000000 -0.000858 5350.944336
					}
				}
			}
			JOINT LeftShoulder
			{
				OFFSET 1067.956787 116.709557 4487.140625
				CHANNELS 6 Xposition Yposition Zposition Zrotation Xrotation Yrotation
				JOINT LeftArm
				{
					OFFSET 3095.262939 0.000000 0.000000
					CHANNELS 6 Xposition Yposition Zposition Zrotation Xrotation Yrotation
					JOINT LeftForeArm
					{
						OFFSET 8026.858398 0.000000 0.000000
						CHANNELS 6 Xposition Yposition Zposition Zrotation Xrotation Yrotation
						JOINT LeftHand
						{
							OFFSET 7179.003418 0.000000 0.000000
							CHANNELS 6 Xposition Yposition Zposition Zrotation Xrotation Yrotation
							End Site
							{
								OFFSET 4013.208496 0.000000 0.000000
							}
						}
					}
				}
			}
			JOINT RightShoulder
			{
				OFFSET -1070.139282 116.709557 4487.140625
				CHANNELS 6 Xposition Yposition Zposition Zrotation Xrotation Yrotation
				JOINT RightArm
				{
					OFFSET -3095.262939 0.000000 0.000000
					CHANNELS 6 Xposition Yposition Zposition Zrotation Xrotation Yrotation
					JOINT RightForeArm
					{
						OFFSET -8026.858398 0.000000 0.000000
						CHANNELS 6 Xposition Yposition Zposition Zrotation Xrotation Yrotation
						JOINT RightHand
						{
							OFFSET -7179.003418 0.000000 0.000000
							CHANNELS 6 Xposition Yposition Zposition Zrotation Xrotation Yrotation
							End Site
							{
								OFFSET -4013.208496 0.000000 0.000000
							}
						}
					}
				}
			}
		}
	}
	JOINT LeftUpLeg
	{
		OFFSET 2675.471680 0.000000 0.000000
		CHANNELS 6 Xposition Yposition Zposition Zrotation Xrotation Yrotation
		JOINT LeftLeg
		{
			OFFSET 0.000000 0.002269 -13925.029297
			CHANNELS 6 Xposition Yposition Zposition Zrotation Xrotation Yrotation
			JOINT LeftFoot
			{
				OFFSET 0.000000 0.001822 -11186.351562
				CHANNELS 6 Xposition Yposition Zposition Zrotation Xrotation Yrotation
				JOINT LeftToeBase
				{
					OFFSET 0.000000 -4013.207275 -1739.057007
					CHANNELS 6 Xposition Yposition Zposition Zrotation Xrotation Yrotation
					End Site
					{
						OFFSET 0.000000 -1070.188721 0.000000
					}
				}
			}
		}
	}
	JOINT RightUpLeg
	{
		OFFSET -2675.471680 0.000000 0.000000
		CHANNELS 6 Xposition Yposition Zposition Zrotation Xrotation Yrotation
		JOINT RightLeg
		{
			OFFSET 0.000000 0.002269 -13925.029297
			CHANNELS 6 Xposition Yposition Zposition Zrotation Xrotation Yrotation
			JOINT RightFoot
			{
				OFFSET 0.000000 0.001822 -11186.351562
				CHANNELS 6 Xposition Yposition Zposition Zrotation Xrotation Yrotation
				JOINT RightToeBase
				{
					OFFSET 0.000000 -4013.207275 -1739.057007
					CHANNELS 6 Xposition Yposition Zposition Zrotation Xrotation Yrotation
					End Site
					{
						OFFSET 0.000000 -1070.188721 0.000000
					}
				}
			}
		}
	}
}
MOTION
Frames: 5
Frame Time: 0.041667
67.132355 3496.291504 22006.361328 -0.546858 3.147290 1.285809 -0.000018 -0.000707 2193.885010 -4.089027 -11.038806 -2.511386 -0.000033 -0.000925 4964.320801 -1.674035 10.599543 4.267262 0.000179 -0.000533 5499.409180 -17.916107 11.064741 6.784346 -0.000758 -535.095703 4146.983398 -18.429940 15.234614 -22.444265 1067.957153 116.709724 4487.138672 -17.328972 1.863885 1.024563 3095.263428 -0.000980 0.000508 -64.492251 43.698075 48.813733 8026.856445 0.000815 0.000265 -60.758399 37.369331 -71.919884 7179.006348 0.000379 0.003018 -11.172126 -8.300751 -33.453341 -1070.138916 116.709427 4487.137207 7.685622 -1.657648 2.429390 -3095.262695 -0.000565 -0.000916 31.328756 22.686653 -29.767126 -8026.860352 -0.001059 0.002267 -2.479875 -11.268874 3.559193 -7179.003418 -0.001559 -0.000134 -3.056402 -11.745901 20.903440 2675.471680 -0.000372 -0.002174 -14.140314 -13.372831 -38.737893 0.001857 0.002491 -13925.029297 15.136937 43.228441 25.678998 0.000296 0.000683 -11186.352539 25.652871 -15.550295 8.849722 -0.000059 -4013.207275 -1739.057129 -0.000000 -0.000000 0.000002 -2675.471680 -0.000143 -0.000687 2.186501 -18.332229 34.467501 0.000169 0.002926 -13925.031250 1.980294 39.718223 -35.457735 -0.000145 0.002355 -11186.352539 -34.114206 -20.865980 -7.700526 -0.000997 -4013.207275 -1739.057129 -0.000001 0.000000 -0.000001 
64.836662 3493.609863 22006.365234 -0.545427 3.151847 1.291221 -0.000011 0.000180 2193.887207 -4.084858 -11.052049 -2.516526 0.000081 -0.000925 4964.320312 -1.673401 10.614520 4.272169 -0.000108 -0.000075 5499.413086 -17.914364 11.066186 6.776237 -0.000815 -535.095947 4146.982910 -18.429633 15.225248 -22.430522 1067.957031 116.709770 4487.139648 -17.326257 1.862720 1.021248 3095.262939 -0.000876 0.002861 -64.516826 43.706514 48.840384 8026.860352 0.000229 0.001917 -60.743823 37.373316 -71.937690 7179.006348 0.000136 0.000418 -11.169815 -8.304766 -33.394700 -1070.139038 116.709610 4487.139160 7.681899 -1.657418 2.418277 -3095.263672 0.000622 -0.001888 31.345497 22.702456 -29.772641 -8026.861328 0.003040 -0.001583 -2.466068 -11.303112 3.553839 -7179.003906 0.000236 0.001203 -3.035082 -11.778514 20.969295 2675.471680 0.000601 -0.000572 -14.140640 -13.368611 -38.743989 0.002316 0.001920 -13925.029297 15.074024 43.201141 25.713873 -0.001080 0.001483 -11186.352539 25.704514 -15.539409 8.882810 0.000514 -4013.208252 -1739.057007 0.000001 0.000000 0.000000 -2675.471436 0.000229 -0.001602 2.180246 -18.335440 34.457266 0.000626 0.002582 -13925.032227 1.990362 39.723762 -35.467216 0.000542 0.001668 -11186.351562 -34.121429 -20.874433 -7.700620 0.000162 -4013.207764 -1739.057129 0.000000 0.000001 -0.000001 
62.110020 3492.150146 22007.158203 -0.537293 3.165282 1.296416 -0.000039 -0.000650 2193.886475 -4.085725 -11.062769 -2.508227 0.000024 -0.001382 4964.321777 -1.671896 10.611431 4.252452 0.000121 -0.000533 5499.417480 -17.912893 11.068965 6.768313 0.001016 -535.095520 4146.980957 -18.430733 15.210811 -22.391522 1067.956909 116.709846 4487.140137 -17.315539 1.873212 1.030629 3095.263428 -0.001016 0.006344 -64.575047 43.711981 48.877366 8026.856445 -0.001949 0.000765 -60.683178 37.358044 -71.999182 7179.004883 -0.000222 0.001722 -11.191206 -8.315474 -33.364856 -1070.139160 116.710068 4487.143066 7.690326 -1.641490 2.427344 -3095.263916 0.000536 -0.001248 31.359932 22.715828 -29.785376 -8026.859375 0.000737 -0.006464 -2.485063 -11.292721 3.535015 -7179.005371 -0.001931 -0.002877 -3.052203 -11.772754 21.031780 2675.471680 -0.000372 -0.001144 -14.148146 -13.377949 -38.751994 0.000256 0.002950 -13925.030273 15.080142 43.198990 25.696215 -0.001194 0.001712 -11186.352539 25.699504 -15.534652 8.869262 -0.000117 -4013.207764 -1739.057007 -0.000000 -0.000000 0.000001 -2675.471680 -0.000286 -0.000572 2.172957 -18.346735 34.442206 -0.000517 0.002467 -13925.030273 1.960167 39.746336 -35.442760 0.001228 0.001898 -11186.353516 -34.105634 -20.878445 -7.712767 0.000557 -4013.206299 -1739.057007 0.000001 0.000001 0.000001 
59.375790 3489.683594 22007.226562 -0.532789 3.166830 1.295430 -0.000068 0.000523 2193.886230 -4.079233 -11.065670 -2.498296 -0.000033 -0.000352 4964.319336 -1.669111 10.620273 4.238648 -0.000107 -0.000075 5499.416504 -17.908097 11.053787 6.771557 0.000057 -535.093445 4146.987793 -18.427097 15.214943 -22.378237 1067.957031 116.709793 4487.142090 -17.314446 1.867744 1.042850 3095.263428 -0.000150 -0.001702 -64.566331 43.712111 48.874095 8026.858398 0.000393 0.001059 -60.711578 37.371510 -71.966937 7179.004883 0.000529 0.000131 -11.184092 -8.299912 -33.359935 -1070.139160 116.709938 4487.141602 7.685345 -1.647866 2.438661 -3095.262695 0.001023 -0.001781 31.454677 22.806391 -29.849460 -8026.858398 0.002267 0.001262 -2.539977 -11.347728 3.551793 -7179.004883 -0.000672 0.000631 -3.022819 -11.818978 20.982355 2675.471680 0.000801 -0.000687 -14.146638 -13.374601 -38.748479 0.002316 0.003065 -13925.029297 15.080907 43.189072 25.683403 -0.000909 0.001941 -11186.352539 25.710090 -15.513036 8.921378 -0.001729 -4013.207275 -1739.056885 0.000001 -0.000003 0.000001 -2675.471680 0.000744 0.000343 2.169785 -18.346868 34.433678 0.001544 0.002810 -13925.030273 1.919364 39.779899 -35.407796 0.001913 0.002013 -11186.350586 -34.079164 -20.868081 -7.667241 0.000511 -4013.208496 -1739.056885 -0.000001 0.000000 0.000002 
57.174423 3487.969238 22007.414062 -0.536386 3.175864 1.297411 0.000047 -0.000021 2193.886475 -4.068629 -11.066448 -2.485630 0.000024 -0.000467 4964.318359 -1.663824 10.613200 4.218407 0.000293 -0.000991 5499.413086 -17.909296 11.045518 6.775074 -0.000730 -535.095398 4146.982910 -18.428834 15.219494 -22.358884 1067.957031 116.709305 4487.141602 -17.316179 1.865604 1.048931 3095.263428 -0.001345 0.000393 -64.660048 43.737017 48.954445 8026.858398 0.000186 0.000694 -60.628563 37.350647 -72.057191 7179.004883 0.000658 0.000894 -11.172305 -8.324516 -33.403802 -1070.138916 116.709579 4487.141602 7.674610 -1.621752 2.444078 -3095.263672 0.000250 -0.002718 31.483545 22.817891 -29.848869 -8026.861328 -0.001101 -0.003932 -2.550506 -11.352534 3.538416 -7179.003418 -0.001109 0.000604 -3.018268 -11.821746 20.938305 2675.471436 0.000486 -0.000687 -14.146404 -13.372614 -38.755316 0.002088 0.003065 -13925.030273 15.055878 43.173803 25.698710 -0.000910 0.001712 -11186.354492 25.722013 -15.520104 8.910523 -0.001408 -4013.206299 -1739.057007 0.000002 -0.000001 0.000002 -2675.471680 0.000458 -0.002289 2.172110 -18.356538 34.427695 0.000399 0.002924 -13925.030273 1.934134 39.784445 -35.419517 -0.000376 0.002470 -11186.349609 -34.078884 -20.897862 -7.712078 -0.000599 -4013.206787 -1739.057007 -0.000000 0.000001 -0.000000 
